<?xml version="1.0" standalone="no"?>
<!DOCTYPE svg PUBLIC "-//W3C//DTD SVG 20010904//EN"
 "http://www.w3.org/TR/2001/REC-SVG-20010904/DTD/svg10.dtd">
<svg version="1.0" xmlns="http://www.w3.org/2000/svg"
 width="538.000000pt" height="538.000000pt" viewBox="0 0 538.000000 538.000000"
 preserveAspectRatio="xMidYMid meet">
<metadata>
Created by potrace 1.11, written by Peter Selinger 2001-2013
</metadata>
<g transform="translate(0.000000,538.000000) scale(0.100000,-0.100000)"
fill="#000000" stroke="none">
<path d="M201 4448 c-74 -28 -142 -97 -170 -171 l-21 -58 0 -1529 0 -1529 21
-58 c29 -76 96 -143 173 -172 l57 -21 2442 2 2442 3 47 23 c60 30 119 89 149
150 l24 47 0 1555 0 1555 -24 47 c-30 61 -89 120 -149 150 l-47 23 -2445 2
-2445 2 -54 -21z m3771 -656 c62 -31 122 -99 139 -159 12 -39 14 -218 14 -993
0 -943 0 -945 -21 -990 -26 -54 -74 -104 -128 -133 -38 -20 -58 -22 -254 -25
-179 -3 -221 -1 -264 14 -60 19 -121 71 -151 128 l-22 41 -3 955 c-2 712 0
966 9 998 23 84 103 160 192 183 18 4 124 7 237 6 192 -2 208 -3 252 -25z
m-2027 -451 c55 -25 104 -75 132 -137 l24 -52 -3 -738 -3 -739 -27 -47 c-35
-59 -89 -103 -150 -124 -39 -13 -87 -15 -260 -12 l-213 3 -53 29 c-55 31 -92
72 -120 134 -15 34 -17 102 -17 767 l0 730 23 50 c30 66 66 102 127 131 48 23
59 24 275 24 196 0 230 -3 265 -19z m1005 -487 c65 -30 105 -67 134 -126 l26
-52 0 -490 c0 -472 -1 -493 -21 -536 -25 -55 -71 -105 -124 -133 -38 -21 -53
-22 -275 -22 -223 0 -237 1 -276 22 -54 29 -117 101 -132 151 -9 28 -12 181
-12 523 0 447 2 487 19 524 37 82 99 132 188 155 21 5 126 8 233 7 174 -2 200
-5 240 -23z"/>
</g>
</svg>
