<?xml version="1.0" encoding="utf-8"?>
<!-- Generator: Adobe Illustrator 16.0.0, SVG Export Plug-In . SVG Version: 6.00 Build 0)  -->
<!DOCTYPE svg PUBLIC "-//W3C//DTD SVG 1.1//EN" "http://www.w3.org/Graphics/SVG/1.1/DTD/svg11.dtd">
<svg version="1.1" id="Layer_1" xmlns="http://www.w3.org/2000/svg" xmlns:xlink="http://www.w3.org/1999/xlink" x="0px" y="0px"
	 width="436.137px" height="62px" viewBox="0 12 436.137 62" enable-background="new 0 12 436.137 62" xml:space="preserve">
<g id="Layer_1_1_" transform="translate(-87.535, -292)">
	<g>
		<g enable-background="new    ">
			<path fill="#FFFFFE" d="M219.89,311.27c0.56,0.581,0.84,1.331,0.84,2.25v36.841c0,0.92-0.25,1.641-0.75,2.159
				c-0.5,0.52-1.19,0.78-2.07,0.78c-0.84,0-1.5-0.261-1.98-0.78c-0.48-0.519-0.72-1.239-0.72-2.159v-27.9l-11.76,22.38
				c-0.761,1.4-1.74,2.101-2.94,2.101c-1.2,0-2.18-0.7-2.94-2.101l-11.82-22.14v27.66c0,0.92-0.24,1.641-0.72,2.159
				c-0.48,0.52-1.161,0.78-2.04,0.78c-0.84,0-1.511-0.27-2.01-0.81c-0.5-0.54-0.75-1.25-0.75-2.13V313.52
				c0-0.919,0.279-1.669,0.84-2.25c0.56-0.579,1.28-0.869,2.16-0.869c1.239,0,2.24,0.72,3,2.159l14.34,27.421l14.22-27.421
				c0.759-1.439,1.74-2.159,2.94-2.159C218.609,310.4,219.329,310.69,219.89,311.27z"/>
			<path fill="#FFFFFE" d="M234.079,351.56c-2.181-1.239-3.861-3.009-5.04-5.31c-1.18-2.3-1.77-4.97-1.77-8.01
				c0-3.08,0.59-5.77,1.77-8.07c1.179-2.3,2.859-4.069,5.04-5.31c2.18-1.239,4.71-1.86,7.59-1.86s5.41,0.621,7.59,1.86
				c2.18,1.24,3.86,3.01,5.04,5.31c1.18,2.301,1.77,4.99,1.77,8.07c0,3.04-0.59,5.71-1.77,8.01c-1.18,2.301-2.86,4.07-5.04,5.31
				c-2.18,1.241-4.71,1.86-7.59,1.86S236.259,352.801,234.079,351.56z M247.819,345.98c1.419-1.76,2.13-4.34,2.13-7.74
				c0-3.36-0.72-5.93-2.16-7.71c-1.44-1.779-3.48-2.67-6.12-2.67s-4.68,0.891-6.12,2.67c-1.44,1.78-2.16,4.35-2.16,7.71
				c0,3.4,0.709,5.98,2.13,7.74c1.419,1.76,3.47,2.64,6.15,2.64C244.349,348.62,246.399,347.74,247.819,345.98z"/>
			<path fill="#FFFFFE" d="M287.989,311.18c0.56,0.521,0.84,1.221,0.84,2.101v37.08c0,0.92-0.27,1.641-0.81,2.159
				c-0.54,0.52-1.271,0.78-2.19,0.78c-0.921,0-1.65-0.261-2.19-0.78c-0.54-0.519-0.81-1.239-0.81-2.159v-2.4
				c-0.88,1.761-2.16,3.11-3.84,4.05c-1.68,0.94-3.621,1.41-5.82,1.41c-2.52,0-4.77-0.64-6.75-1.92c-1.98-1.279-3.521-3.08-4.62-5.4
				c-1.101-2.319-1.65-4.979-1.65-7.979c0-3.039,0.549-5.7,1.65-7.98c1.1-2.279,2.63-4.039,4.59-5.279
				c1.959-1.239,4.22-1.86,6.78-1.86c2.199,0,4.13,0.471,5.79,1.41c1.659,0.94,2.93,2.271,3.81,3.99v-15.24
				c0-0.84,0.27-1.51,0.81-2.01s1.269-0.75,2.19-0.75C286.688,310.4,287.428,310.66,287.989,311.18z M280.669,345.92
				c1.44-1.8,2.16-4.359,2.16-7.68s-0.711-5.88-2.13-7.681c-1.42-1.8-3.45-2.699-6.09-2.699s-4.69,0.891-6.15,2.67
				c-1.461,1.78-2.19,4.311-2.19,7.59c0,3.28,0.74,5.85,2.22,7.71c1.479,1.86,3.52,2.79,6.12,2.79
				C277.208,348.62,279.229,347.72,280.669,345.92z"/>
			<path fill="#FFFFFE" d="M320.628,346.28c0.36,0.44,0.54,1,0.54,1.68c0,1.161-0.721,2.141-2.16,2.94
				c-1.4,0.8-2.931,1.42-4.59,1.859c-1.66,0.439-3.25,0.66-4.77,0.66c-4.641,0-8.301-1.35-10.98-4.05
				c-2.68-2.7-4.02-6.39-4.02-11.07c0-3,0.59-5.659,1.77-7.979c1.179-2.319,2.84-4.12,4.98-5.4c2.139-1.279,4.569-1.92,7.29-1.92
				c3.919,0,7.02,1.26,9.3,3.78c2.279,2.52,3.42,5.92,3.42,10.2c0,1.6-0.721,2.399-2.16,2.399h-18.54
				c0.399,6.201,3.379,9.3,8.94,9.3c1.479,0,2.76-0.199,3.84-0.6c1.08-0.399,2.22-0.92,3.42-1.561
				c0.119-0.079,0.449-0.249,0.99-0.51c0.539-0.26,0.989-0.39,1.35-0.39C319.808,345.62,320.268,345.84,320.628,346.28z
				 M303.228,329.66c-1.401,1.48-2.241,3.561-2.52,6.24h15.48c-0.12-2.72-0.81-4.81-2.07-6.271c-1.26-1.46-3.03-2.189-5.31-2.189
				C306.488,327.44,304.628,328.181,303.228,329.66z"/>
			<path fill="#FFFFFE" d="M348.017,352.22c-2.74-0.84-4.931-1.999-6.569-3.479c-0.761-0.64-1.141-1.46-1.141-2.46
				c0-0.721,0.199-1.33,0.6-1.83s0.88-0.75,1.44-0.75c0.56,0,1.239,0.261,2.04,0.78c3.56,2.64,7.62,3.96,12.18,3.96
				c3.199,0,5.66-0.601,7.381-1.801c1.719-1.199,2.58-2.919,2.58-5.159c0-1.76-0.801-3.08-2.4-3.961
				c-1.601-0.879-4.161-1.719-7.68-2.52c-3.361-0.72-6.121-1.539-8.281-2.46c-2.159-0.92-3.85-2.169-5.069-3.75
				c-1.221-1.58-1.83-3.59-1.83-6.03c0-2.439,0.669-4.609,2.011-6.51c1.339-1.899,3.209-3.38,5.609-4.44
				c2.4-1.059,5.139-1.59,8.22-1.59c2.84,0,5.46,0.4,7.86,1.2c2.4,0.801,4.439,1.98,6.119,3.54c0.801,0.681,1.201,1.5,1.201,2.46
				c0,0.681-0.211,1.28-0.631,1.8c-0.42,0.521-0.91,0.78-1.47,0.78c-0.521,0-1.181-0.26-1.979-0.78
				c-1.841-1.399-3.57-2.409-5.19-3.029s-3.569-0.931-5.851-0.931c-3.08,0-5.48,0.63-7.199,1.891c-1.721,1.26-2.58,3.01-2.58,5.25
				c0,1.92,0.76,3.37,2.279,4.35c1.521,0.98,3.961,1.87,7.32,2.67c3.52,0.801,6.369,1.631,8.551,2.49c2.18,0.86,3.92,2.04,5.22,3.54
				s1.95,3.43,1.95,5.79c0,2.399-0.671,4.529-2.01,6.39c-1.342,1.86-3.221,3.3-5.641,4.32c-2.42,1.02-5.211,1.53-8.37,1.53
				C353.647,353.48,350.756,353.06,348.017,352.22z"/>
			<path fill="#FFFFFE" d="M403.517,323.9c0.54,0.52,0.81,1.24,0.81,2.159v24.421c0,0.84-0.279,1.521-0.84,2.039
				c-0.561,0.52-1.3,0.78-2.22,0.78c-0.84,0-1.521-0.25-2.04-0.75c-0.52-0.499-0.779-1.17-0.779-2.01v-2.28
				c-0.921,1.681-2.19,2.961-3.811,3.84c-1.62,0.881-3.43,1.32-5.43,1.32c-7.121,0-10.68-3.92-10.68-11.76V326.06
				c0-0.919,0.27-1.64,0.81-2.159s1.29-0.78,2.25-0.78c0.919,0,1.649,0.261,2.19,0.78c0.539,0.52,0.81,1.24,0.81,2.159v15.54
				c0,2.361,0.479,4.101,1.44,5.221c0.959,1.12,2.439,1.68,4.439,1.68c2.359,0,4.25-0.76,5.67-2.28c1.42-1.52,2.13-3.54,2.13-6.06
				V326.06c0-0.879,0.28-1.59,0.841-2.13c0.559-0.54,1.299-0.81,2.219-0.81S402.977,323.381,403.517,323.9z"/>
			<path fill="#FFFFFE" d="M430.067,325.58c0,0.88-0.221,1.54-0.66,1.979c-0.439,0.441-1.199,0.701-2.279,0.78l-1.801,0.18
				c-2.52,0.24-4.391,1.121-5.61,2.641c-1.221,1.521-1.83,3.359-1.83,5.52v13.74c0,0.96-0.28,1.68-0.84,2.16
				c-0.561,0.479-1.28,0.72-2.16,0.72s-1.61-0.24-2.19-0.72c-0.58-0.48-0.869-1.2-0.869-2.16V326c0-0.92,0.289-1.629,0.869-2.13
				c0.58-0.5,1.311-0.75,2.19-0.75c0.8,0,1.47,0.25,2.011,0.75c0.539,0.501,0.81,1.19,0.81,2.07v2.88c0.8-1.76,1.96-3.1,3.479-4.021
				c1.52-0.92,3.24-1.46,5.16-1.62l0.84-0.06C429.108,323,430.067,323.82,430.067,325.58z"/>
			<path fill="#FFFFFE" d="M456.496,323.6c0.459-0.279,0.949-0.42,1.469-0.42c0.76,0,1.43,0.261,2.01,0.78
				c0.58,0.521,0.871,1.14,0.871,1.86c0,0.4-0.08,0.779-0.24,1.14l-11.461,24.3c-0.279,0.641-0.709,1.131-1.289,1.471
				c-0.58,0.339-1.191,0.51-1.83,0.51c-0.641,0-1.25-0.171-1.83-0.51c-0.58-0.34-1.01-0.83-1.289-1.471l-11.461-24.3
				c-0.16-0.319-0.24-0.699-0.24-1.14c0-0.721,0.32-1.34,0.961-1.86c0.639-0.52,1.359-0.78,2.16-0.78
				c1.158,0,2.018,0.561,2.58,1.681l9.299,20.64l9.24-20.58C455.686,324.32,456.035,323.88,456.496,323.6z"/>
			<path fill="#FFFFFE" d="M488.746,346.28c0.359,0.44,0.539,1,0.539,1.68c0,1.161-0.719,2.141-2.16,2.94
				c-1.4,0.8-2.93,1.42-4.59,1.859s-3.25,0.66-4.77,0.66c-4.641,0-8.301-1.35-10.98-4.05s-4.02-6.39-4.02-11.07
				c0-3,0.59-5.659,1.77-7.979c1.18-2.319,2.84-4.12,4.98-5.4c2.139-1.279,4.57-1.92,7.289-1.92c3.92,0,7.021,1.26,9.301,3.78
				c2.279,2.52,3.42,5.92,3.42,10.2c0,1.6-0.721,2.399-2.16,2.399h-18.539c0.398,6.201,3.379,9.3,8.939,9.3
				c1.479,0,2.76-0.199,3.84-0.6c1.08-0.399,2.221-0.92,3.42-1.561c0.121-0.079,0.451-0.249,0.99-0.51
				c0.539-0.26,0.99-0.39,1.35-0.39C487.926,345.62,488.385,345.84,488.746,346.28z M471.346,329.66c-1.4,1.48-2.24,3.561-2.52,6.24
				h15.479c-0.119-2.72-0.809-4.81-2.068-6.271c-1.26-1.46-3.031-2.189-5.311-2.189C474.606,327.44,472.746,328.181,471.346,329.66z
				"/>
			<path fill="#FFFFFE" d="M516.676,323.6c0.459-0.279,0.949-0.42,1.471-0.42c0.76,0,1.43,0.261,2.01,0.78
				c0.578,0.521,0.869,1.14,0.869,1.86c0,0.4-0.08,0.779-0.24,1.14l-16.68,35.4c-0.24,0.56-0.59,0.989-1.049,1.29
				c-0.461,0.3-0.951,0.449-1.471,0.449c-0.721,0-1.371-0.239-1.949-0.72c-0.582-0.479-0.871-1.08-0.871-1.8
				c0-0.32,0.1-0.72,0.301-1.2l4.139-8.82l-11.58-24.6c-0.16-0.319-0.238-0.68-0.238-1.08c0-0.759,0.318-1.399,0.959-1.92
				c0.639-0.52,1.359-0.78,2.16-0.78c1.199,0,2.061,0.561,2.58,1.681l9.301,20.64l9.238-20.58
				C515.866,324.32,516.215,323.88,516.676,323.6z"/>
		</g>
		<path fill="#FFFFFE" d="M153.311,308.444c2.224,0,4.027,1.803,4.027,4.027v38.337c0,2.226-1.803,4.028-4.027,4.028l-61.749-0.001
			c-2.224,0.001-4.027-1.802-4.027-4.027v-38.337c0-2.224,1.803-4.027,4.027-4.027H153.311z M137.678,316.956h-4.131
			c-1.913,0-3.464,1.551-3.464,3.465v23.388c0,1.914,1.551,3.465,3.464,3.465h4.131c1.914,0,3.465-1.551,3.465-3.465v-23.388
			C141.143,318.507,139.592,316.956,137.678,316.956z M111.345,322.846h-4.131c-1.913,0-3.465,1.551-3.465,3.465v17.498
			c0,1.914,1.552,3.465,3.465,3.465h4.131c1.913,0,3.465-1.551,3.465-3.465v-17.498C114.81,324.397,113.258,322.846,111.345,322.846
			z M124.511,329.198h-4.13c-1.914,0-3.465,1.552-3.465,3.465v11.146c0,1.914,1.551,3.465,3.465,3.465h4.13
			c1.914,0,3.465-1.551,3.465-3.465v-11.146C127.976,330.75,126.425,329.198,124.511,329.198z"/>
	</g>
</g>
</svg>