<?xml version="1.0" encoding="UTF-8"?>
<!DOCTYPE svg PUBLIC "-//W3C//DTD SVG 1.1//EN" "http://www.w3.org/Graphics/SVG/1.1/DTD/svg11.dtd">
<svg version="1.1" xmlns="http://www.w3.org/2000/svg" xmlns:xlink="http://www.w3.org/1999/xlink" x="0" y="0" width="457.274" height="85" viewBox="0, 0, 457.274, 85">
  <g id="Layer_1" transform="translate(-87.535, -292)">
    <g>
      <text transform="matrix(1, 0, 0, 1, 360.03, 334.5)">
        <tspan x="-184.78" y="18.5" font-family="Nunito-SemiBold" font-size="60" kerning="-1" fill="#FFFFFE">Mode Survey</tspan>
      </text>
      <path d="M153.311,308.444 C155.535,308.444 157.338,310.247 157.338,312.471 L157.338,350.809 C157.338,353.034 155.535,354.837 153.311,354.837 L91.562,354.836 C89.338,354.837 87.535,353.034 87.535,350.809 L87.535,312.471 C87.535,310.247 89.338,308.444 91.562,308.444 L153.311,308.444 z M137.678,316.956 L133.547,316.956 C131.634,316.956 130.083,318.507 130.083,320.421 L130.083,343.809 C130.083,345.722 131.634,347.274 133.547,347.274 L137.678,347.274 C139.592,347.274 141.143,345.722 141.143,343.809 L141.143,320.421 C141.143,318.507 139.592,316.956 137.678,316.956 z M111.345,322.846 L107.214,322.846 C105.301,322.846 103.749,324.397 103.749,326.311 L103.749,343.809 C103.749,345.722 105.301,347.274 107.214,347.274 L111.345,347.274 C113.258,347.274 114.81,345.722 114.81,343.809 L114.81,326.311 C114.81,324.397 113.258,322.846 111.345,322.846 z M124.511,329.198 L120.381,329.198 C118.467,329.198 116.916,330.75 116.916,332.663 L116.916,343.809 C116.916,345.722 118.467,347.274 120.381,347.274 L124.511,347.274 C126.425,347.274 127.976,345.722 127.976,343.809 L127.976,332.663 C127.976,330.75 126.425,329.198 124.511,329.198 z" fill="#FFFFFE"/>
    </g>
  </g>
</svg>
